# xmcd
#
# Track frame offsets: 
#        150
#        23963
#        44094
#        61443
#        86838
#        108366
#        128240
#        155303
#        170165
#        190955
#        219742
#        233642
#        254763
#
# Disc length: 3799 seconds
#
# Revision: 1
# Processed by: cddbd v1.5.2PL0 Copyright (c) Steve Scherf et al.
# Submitted via: ExactAudioCopy v0.99pb5
#
DISCID=c20ed50d
DTITLE=Mighty Sam McClain - One More Bridge To Cross
DYEAR=2003
DGENRE=Blues
TTITLE0=Why Do We Have To Say Goodbye
TTITLE1=Witness
TTITLE2=Open Up Heaven's Door
TTITLE3=If It Wasn't 4 Da Blues
TTITLE4=Most Of All
TTITLE5=Are You Ready For Love
TTITLE6=Been There, Done That
TTITLE7=What's Your Name
TTITLE8=Thought I Heard Your Voice
TTITLE9=The Other Man In The Band
TTITLE10=Sweet Honey Bee
TTITLE11=Don't Leave Me Behind
TTITLE12=One More Bridge To Cross
EXTD=
EXTT0=
EXTT1=
EXTT2=
EXTT3=
EXTT4=
EXTT5=
EXTT6=
EXTT7=
EXTT8=
EXTT9=
EXTT10=
EXTT11=
EXTT12=
PLAYORDER=
